# xmcd CD database file
#
# Track frame offsets:
#	150
#	15702
#	30799
#	50398
#	73177
#	92004
#	109587
#	123386
#	144311
#	168155
#	192325
#	205455
#	229171
#	250768
#	265242
#	280825
#	297605
#	318977
#	338767
#
# Disc length: 4764 seconds
#
# Revision: 0
# Processed by: cddbd v1.5.2PL0 Copyright (c) Steve Scherf et al.
# Submitted via: CDex 1.70beta2
#
DISCID=12129a13
DTITLE=Various Artist - Best Audiophile Voices Mix
DYEAR=1900
DGENRE=New Age
TTITLE0=Desperado - Emi Fujita 藤田惠美
TTITLE1=Stay - Alison Krauss 艾莉森克勞絲
TTITLE2=Fly Away - Corrinne May星籍爵士創作藝人/海豚灣戀人主題曲Journey原曲唱作人
TTITLE3=The Ole Devil Called Love - Etta Jones艾塔瓊斯
TTITLE4=Someone To Watch Over Me - Susannah McCorkle蘇珊麥肯
TTITLE5=Do That To Me One More Time - Jheena Lodwick菲籍爵士天后珍娜
TTITLE6=My Foolish Heart - Salena Jones瑟琳娜瓊絲
TTITLE7=When I Fall In Love - Claire Martin克萊瑪婷
TTITLE8=Both Sides Now - Jeanette Lindstrom and Steve dobrogosz
TTITLE9=Vincent - Sara K 
TTITLE10=That's All - Dina Blade
TTITLE11=Alfie - Jean Frye Sidwell 
TTITLE12=McCorkle - Susannah
TTITLE13=The Way You are - Tim Tamashiro
TTITLE14=You Don't Bring - Salena Jones
TTITLE15=A Child is Born - Jheena Lodwick
TTITLE16=Dindi - Trisha O Brien
TTITLE17=Isn't she lovely - Livingston Taylor
TTITLE18=What the world needs now is love - Stacey Kent
EXTD=
EXTT0=
EXTT1=
EXTT2=
EXTT3=
EXTT4=
EXTT5=
EXTT6=
EXTT7=
EXTT8=
EXTT9=
EXTT10=
EXTT11=
EXTT12=
EXTT13=
EXTT14=
EXTT15=
EXTT16=
EXTT17=
EXTT18=
PLAYORDER=
